<svg width="24" height="25" viewBox="0 0 24 25" fill="none" xmlns="http://www.w3.org/2000/svg">
<path d="M11.5557 5.4126C11.5557 4.86031 12.0034 4.4126 12.5557 4.4126H20.0001C20.5524 4.4126 21.0001 4.86031 21.0001 5.4126V7.19038C21.0001 7.74266 20.5524 8.19038 20.0001 8.19038H12.5557C12.0034 8.19038 11.5557 7.74266 11.5557 7.19038V5.4126Z" stroke="currentColor" stroke-width="1.36"/>
<path d="M11.5557 12.0239C11.5557 11.4716 12.0034 11.0239 12.5557 11.0239H20.0001C20.5524 11.0239 21.0001 11.4716 21.0001 12.0239V13.8017C21.0001 14.354 20.5524 14.8017 20.0001 14.8017H12.5557C12.0034 14.8017 11.5557 14.354 11.5557 13.8017V12.0239Z" stroke="currentColor" stroke-width="1.36"/>
<rect x="4" y="17.6348" width="17" height="3.77778" rx="1" stroke="currentColor" stroke-width="1.36"/>
<rect x="4" y="4.4126" width="4.72222" height="10.3889" rx="1" stroke="currentColor" stroke-width="1.36"/>
</svg>
