<svg width="24" height="25" viewBox="0 0 24 25" fill="none" xmlns="http://www.w3.org/2000/svg">
<mask id="path-1-inside-1_57_2562" fill="white">
<path d="M8.70249 8.09384C8.64426 8.11896 8.5898 8.15202 8.54064 8.19209L5.20797 11.4615C4.25035 12.8668 3.20487 14.2626 3.52747 15.3842C3.79776 16.2625 4.98474 17.3762 4.85578 18.2474C4.82606 18.4481 4.88667 18.6517 5.02135 18.8036C5.15603 18.9554 5.35097 19.0398 5.55383 19.0342C7.33299 18.9853 9.47653 18.9105 11.4351 18.5008C13.3801 18.0938 15.2768 17.3306 16.4335 15.7989C16.5223 15.6812 16.5709 15.5381 16.5721 15.3906L16.5935 12.6915C16.5963 12.3434 16.3381 12.0483 15.9927 12.0048C15.6473 11.9614 15.324 12.1833 15.2405 12.5213C15.2098 12.6454 15.1686 12.7472 15.0871 12.8559C15.0236 12.9407 14.9232 13.0458 14.7564 13.17C14.7054 13.1639 14.6542 13.1592 14.6038 13.1567C14.4584 13.1495 14.2555 13.1562 14.0507 13.2463C13.7398 13.3831 13.5835 13.6265 13.5039 13.8663C13.4238 13.903 13.3369 13.9414 13.2425 13.9827C13.22 13.9925 13.1972 14.0025 13.1741 14.0126C13.0469 14.0681 12.9092 14.1283 12.7682 14.1931C12.5033 14.146 12.1896 14.1369 11.8879 14.2915C11.5897 14.4444 11.4054 14.7069 11.2762 14.9546C11.1532 15.0228 10.8992 15.1721 10.8992 15.1721L10.8595 15.1954C10.7785 15.2429 10.6323 15.3279 10.6323 15.3279C10.4079 15.2152 10.1352 15.1447 9.83512 15.2167C9.42114 15.3159 9.18026 15.626 9.03578 15.9375C8.59608 16.1424 8.40905 15.5694 7.91992 15.7989C8.39121 15.0703 8.77504 14.9191 9.29402 14.5255C9.5868 14.5917 9.88895 14.5573 10.1509 14.4324C10.4206 14.3038 10.6474 14.0762 10.7635 13.7824C10.9377 13.7032 11.1232 13.6171 11.2914 13.5354C11.5935 13.5511 11.9103 13.5164 12.189 13.3645C12.4524 13.221 12.6221 13.0078 12.7168 12.7681C12.9035 12.6603 13.0897 12.5504 13.2757 12.4388C13.3228 12.4505 13.3689 12.4606 13.4126 12.4683C13.5247 12.4881 13.8174 12.5333 14.0945 12.3535C14.3807 12.1679 14.4522 11.8733 14.4765 11.7592C14.4835 11.7261 14.4897 11.6911 14.4951 11.6552C14.5471 11.6171 14.5975 11.5795 14.6443 11.5445L14.6547 11.5367C14.7032 11.5004 14.7485 11.4666 14.7908 11.4355L14.7946 11.4363C14.8244 11.4427 14.9003 11.4589 14.9836 11.4615C15.0602 11.4639 15.3163 11.4627 15.5281 11.2484C15.7024 11.0719 15.7289 10.8634 15.7345 10.7972L15.7419 10.7919C15.7732 10.7695 15.804 10.7476 15.8333 10.7268C15.8973 10.6813 15.9625 10.6358 16.0281 10.5915C16.0315 10.5924 16.0349 10.5933 16.0382 10.5941C16.0412 10.5949 16.0442 10.5957 16.0472 10.5965C16.1024 10.6107 16.1825 10.6284 16.2736 10.6327C16.3647 10.6369 16.51 10.63 16.6644 10.555C16.8973 10.4417 17.0044 10.2545 17.0548 10.1104C17.0689 10.1039 17.0829 10.0975 17.0967 10.0911C17.1744 10.0549 17.2307 10.0272 17.2847 10.0006C17.3155 10.0108 17.3457 10.02 17.3746 10.0279C17.4609 10.0516 17.7416 10.1285 18.0285 9.98378C18.2676 9.86322 18.3765 9.66197 18.4271 9.52697C18.5441 9.52703 18.6771 9.53576 18.8366 9.54696L18.8605 9.54864C19.0331 9.56082 19.2508 9.57617 19.4483 9.56607C19.6298 9.55679 19.9635 9.52252 20.2303 9.29175C20.3976 9.14706 20.485 8.93065 20.465 8.71038C20.445 8.49011 20.3201 8.29296 20.1295 8.18077C19.8771 8.03225 19.6395 7.88222 19.407 7.73541C18.4916 7.15748 17.6552 6.62946 16.3134 6.43982C16.1868 6.42192 16.0652 6.40454 15.9481 6.38782C14.515 6.18305 13.7674 6.07623 12.8876 6.30914C12.4319 6.42977 11.9509 6.63672 11.3279 6.91861C11.1822 6.98453 11.0271 7.05534 10.8604 7.13144C10.2997 7.38744 9.60752 7.70343 8.70249 8.09384Z"/>
</mask>
<path d="M8.70249 8.09384C8.64426 8.11896 8.5898 8.15202 8.54064 8.19209L5.20797 11.4615C4.25035 12.8668 3.20487 14.2626 3.52747 15.3842C3.79776 16.2625 4.98474 17.3762 4.85578 18.2474C4.82606 18.4481 4.88667 18.6517 5.02135 18.8036C5.15603 18.9554 5.35097 19.0398 5.55383 19.0342C7.33299 18.9853 9.47653 18.9105 11.4351 18.5008C13.3801 18.0938 15.2768 17.3306 16.4335 15.7989C16.5223 15.6812 16.5709 15.5381 16.5721 15.3906L16.5935 12.6915C16.5963 12.3434 16.3381 12.0483 15.9927 12.0048C15.6473 11.9614 15.324 12.1833 15.2405 12.5213C15.2098 12.6454 15.1686 12.7472 15.0871 12.8559C15.0236 12.9407 14.9232 13.0458 14.7564 13.17C14.7054 13.1639 14.6542 13.1592 14.6038 13.1567C14.4584 13.1495 14.2555 13.1562 14.0507 13.2463C13.7398 13.3831 13.5835 13.6265 13.5039 13.8663C13.4238 13.903 13.3369 13.9414 13.2425 13.9827C13.22 13.9925 13.1972 14.0025 13.1741 14.0126C13.0469 14.0681 12.9092 14.1283 12.7682 14.1931C12.5033 14.146 12.1896 14.1369 11.8879 14.2915C11.5897 14.4444 11.4054 14.7069 11.2762 14.9546C11.1532 15.0228 10.8992 15.1721 10.8992 15.1721L10.8595 15.1954C10.7785 15.2429 10.6323 15.3279 10.6323 15.3279C10.4079 15.2152 10.1352 15.1447 9.83512 15.2167C9.42114 15.3159 9.18026 15.626 9.03578 15.9375C8.59608 16.1424 8.40905 15.5694 7.91992 15.7989C8.39121 15.0703 8.77504 14.9191 9.29402 14.5255C9.5868 14.5917 9.88895 14.5573 10.1509 14.4324C10.4206 14.3038 10.6474 14.0762 10.7635 13.7824C10.9377 13.7032 11.1232 13.6171 11.2914 13.5354C11.5935 13.5511 11.9103 13.5164 12.189 13.3645C12.4524 13.221 12.6221 13.0078 12.7168 12.7681C12.9035 12.6603 13.0897 12.5504 13.2757 12.4388C13.3228 12.4505 13.3689 12.4606 13.4126 12.4683C13.5247 12.4881 13.8174 12.5333 14.0945 12.3535C14.3807 12.1679 14.4522 11.8733 14.4765 11.7592C14.4835 11.7261 14.4897 11.6911 14.4951 11.6552C14.5471 11.6171 14.5975 11.5795 14.6443 11.5445L14.6547 11.5367C14.7032 11.5004 14.7485 11.4666 14.7908 11.4355L14.7946 11.4363C14.8244 11.4427 14.9003 11.4589 14.9836 11.4615C15.0602 11.4639 15.3163 11.4627 15.5281 11.2484C15.7024 11.0719 15.7289 10.8634 15.7345 10.7972L15.7419 10.7919C15.7732 10.7695 15.804 10.7476 15.8333 10.7268C15.8973 10.6813 15.9625 10.6358 16.0281 10.5915C16.0315 10.5924 16.0349 10.5933 16.0382 10.5941C16.0412 10.5949 16.0442 10.5957 16.0472 10.5965C16.1024 10.6107 16.1825 10.6284 16.2736 10.6327C16.3647 10.6369 16.51 10.63 16.6644 10.555C16.8973 10.4417 17.0044 10.2545 17.0548 10.1104C17.0689 10.1039 17.0829 10.0975 17.0967 10.0911C17.1744 10.0549 17.2307 10.0272 17.2847 10.0006C17.3155 10.0108 17.3457 10.02 17.3746 10.0279C17.4609 10.0516 17.7416 10.1285 18.0285 9.98378C18.2676 9.86322 18.3765 9.66197 18.4271 9.52697C18.5441 9.52703 18.6771 9.53576 18.8366 9.54696L18.8605 9.54864C19.0331 9.56082 19.2508 9.57617 19.4483 9.56607C19.6298 9.55679 19.9635 9.52252 20.2303 9.29175C20.3976 9.14706 20.485 8.93065 20.465 8.71038C20.445 8.49011 20.3201 8.29296 20.1295 8.18077C19.8771 8.03225 19.6395 7.88222 19.407 7.73541C18.4916 7.15748 17.6552 6.62946 16.3134 6.43982C16.1868 6.42192 16.0652 6.40454 15.9481 6.38782C14.515 6.18305 13.7674 6.07623 12.8876 6.30914C12.4319 6.42977 11.9509 6.63672 11.3279 6.91861C11.1822 6.98453 11.0271 7.05534 10.8604 7.13144C10.2997 7.38744 9.60752 7.70343 8.70249 8.09384Z" fill="#A2A2A2" stroke="currentColor" stroke-width="2.34" stroke-linecap="round" stroke-linejoin="round" mask="url(#path-1-inside-1_57_2562)"/>
</svg>
