<svg width="24" height="25" viewBox="0 0 24 25" fill="none" xmlns="http://www.w3.org/2000/svg">
<path d="M5.9002 12.6151C5.9002 13.4988 5.18385 14.2151 4.3002 14.2151C3.41654 14.2151 2.7002 13.4988 2.7002 12.6151C2.7002 11.7315 3.41654 11.0151 4.3002 11.0151C5.18385 11.0151 5.9002 11.7315 5.9002 12.6151Z" stroke="currentColor" stroke-width="1.36" stroke-linecap="round"/>
<path d="M13.6004 12.6151C13.6004 13.4988 12.884 14.2151 12.0004 14.2151C11.1167 14.2151 10.4004 13.4988 10.4004 12.6151C10.4004 11.7315 11.1167 11.0151 12.0004 11.0151C12.884 11.0151 13.6004 11.7315 13.6004 12.6151Z" stroke="currentColor" stroke-width="1.36" stroke-linecap="round"/>
<path d="M21.3001 12.6151C21.3001 13.4988 20.5838 14.2151 19.7001 14.2151C18.8164 14.2151 18.1001 13.4988 18.1001 12.6151C18.1001 11.7315 18.8164 11.0151 19.7001 11.0151C20.5838 11.0151 21.3001 11.7315 21.3001 12.6151Z" stroke="currentColor" stroke-width="1.36" stroke-linecap="round"/>
</svg>
