<svg width="24" height="25" viewBox="0 0 24 25" fill="currentColor" xmlns="http://www.w3.org/2000/svg">
<path d="M2.00979 13.3555C2.00979 18.0203 5.23686 21.5834 10.1081 22.4547" stroke="currentColor" stroke-width="1.17" stroke-linecap="round"/>
<circle cx="12" cy="12.6152" r="8" stroke="currentColor" stroke-width="1.36"/>
<path fill-rule="evenodd" clip-rule="evenodd" d="M12 18.6152C15.3137 18.6152 18 15.9289 18 12.6152C18 9.30153 15.3137 6.61523 12 6.61523C8.68629 6.61523 6 9.30153 6 12.6152C6 15.9289 8.68629 18.6152 12 18.6152ZM7.95628 10.0302C7.63319 10.0302 7.37128 10.2922 7.37128 10.6152C7.37128 10.9383 7.63319 11.2002 7.95628 11.2002H13.7359C14.059 11.2002 14.3209 10.9383 14.3209 10.6152C14.3209 10.2922 14.059 10.0302 13.7359 10.0302H7.95628ZM7.37128 12.6152C7.37128 12.2922 7.63319 12.0302 7.95628 12.0302H16.3028C16.6259 12.0302 16.8878 12.2922 16.8878 12.6152C16.8878 12.9383 16.6259 13.2002 16.3028 13.2002H7.95628C7.63319 13.2002 7.37128 12.9383 7.37128 12.6152ZM7.95628 14.0302C7.63319 14.0302 7.37128 14.2922 7.37128 14.6152C7.37128 14.9383 7.63319 15.2002 7.95628 15.2002H12.5229C12.846 15.2002 13.1079 14.9383 13.1079 14.6152C13.1079 14.2922 12.846 14.0302 12.5229 14.0302H7.95628Z" fill="currentColor"/>
</svg>
