<svg width="24" height="25" viewBox="0 0 24 25" fill="none" xmlns="http://www.w3.org/2000/svg">
<mask id="path-1-inside-1_67_4329" fill="white">
<path d="M7.09609 13.6806C6.37224 12.9567 6.69471 12.069 7.70739 11.9194C8.94488 11.7366 10.4813 10.692 13.644 4.87323C14.1028 4.02922 15.2495 3.84366 15.9288 4.52293L20.0919 8.68603C20.7713 9.36546 20.5854 10.5127 19.7376 10.9651C13.5905 14.2452 12.7975 15.3932 12.6965 16.6856C12.6126 17.7591 11.5422 18.1267 10.7809 17.3654L7.09609 13.6806Z"/>
</mask>
<path d="M7.09609 13.6806C6.37224 12.9567 6.69471 12.069 7.70739 11.9194C8.94488 11.7366 10.4813 10.692 13.644 4.87323C14.1028 4.02922 15.2495 3.84366 15.9288 4.52293L20.0919 8.68603C20.7713 9.36546 20.5854 10.5127 19.7376 10.9651C13.5905 14.2452 12.7975 15.3932 12.6965 16.6856C12.6126 17.7591 11.5422 18.1267 10.7809 17.3654L7.09609 13.6806Z" stroke="currentColor" stroke-width="2.72" mask="url(#path-1-inside-1_67_4329)"/>
<path d="M5.44132 18.0771C5.21287 18.3055 5.21287 18.6759 5.44132 18.9044C5.66978 19.1328 6.04018 19.1328 6.26864 18.9044L5.44132 18.0771ZM8.96025 16.2128L9.37391 15.7991L8.54659 14.9718L8.13294 15.3855L8.96025 16.2128ZM6.26864 18.9044L8.96025 16.2128L8.13294 15.3855L5.44132 18.0771L6.26864 18.9044Z" fill="#A2A2A2"/>
</svg>
