<svg width="24" height="25" viewBox="0 0 24 25" fill="none" xmlns="http://www.w3.org/2000/svg">
<rect x="9" y="9.61523" width="6" height="6" rx="3" stroke="currentColor" stroke-width="1.356" stroke-linecap="round"/>
<path d="M5.18861 7.12724C5.3834 6.49419 5.87895 5.99863 6.512 5.80385L11.4118 4.29621C11.7951 4.17829 12.2049 4.17829 12.5882 4.29621L17.488 5.80385C18.121 5.99863 18.6166 6.49419 18.8114 7.12724L20.319 12.0271C20.4369 12.4103 20.4369 12.8202 20.319 13.2034L18.8114 18.1032C18.6166 18.7363 18.121 19.2318 17.488 19.4266L12.5882 20.9343C12.2049 21.0522 11.7951 21.0522 11.4118 20.9343L6.512 19.4266C5.87895 19.2318 5.3834 18.7363 5.18861 18.1032L3.68098 13.2034C3.56305 12.8202 3.56305 12.4103 3.68098 12.0271L5.18861 7.12724Z" stroke="currentColor" stroke-width="1.36"/>
</svg>
